HIERARCHY
ROOT Hips
{
	OFFSET 0.000000 0.000000 0.000000
	CHANNELS 6 Xposition Yposition Zposition Xrotation Yrotation Zrotation
	JOINT LeftUpLeg_virtual
	{
		OFFSET 0.000000 0.000000 0.000000
		CHANNELS 3 Xrotation Yrotation Zrotation
		JOINT LeftUpLeg
		{
			OFFSET 13.026900 -6.336304 -1.092800
			CHANNELS 3 Xrotation Yrotation Zrotation
			JOINT LeftLeg
			{
				OFFSET 0.524474 -46.096886 9.782700
				CHANNELS 3 Xrotation Yrotation Zrotation
				JOINT LeftFoot
				{
					OFFSET -0.524474 -53.427422 -12.948200
					CHANNELS 3 Xrotation Yrotation Zrotation
					JOINT LeftToeBase
					{
						OFFSET 0.192200 -14.009700 16.364100
						CHANNELS 3 Xrotation Yrotation Zrotation
						JOINT LeftToe_End
						{
							OFFSET -1.784700 -0.561700 9.474800
							CHANNELS 3 Xrotation Yrotation Zrotation
							End Site
							{
								OFFSET 0 0 0
							}
						}
					}
				}
			}
		}
	}
	JOINT RightUpLeg_virtual
	{
		OFFSET 0.000000 0.000000 0.000000
		CHANNELS 3 Xrotation Yrotation Zrotation
		JOINT RightUpLeg
		{
			OFFSET -12.883000 -6.336304 -1.092800
			CHANNELS 3 Xrotation Yrotation Zrotation
			JOINT RightLeg
			{
				OFFSET -0.524587 -46.096825 9.782800
				CHANNELS 3 Xrotation Yrotation Zrotation
				JOINT RightFoot
				{
					OFFSET 0.524587 -53.427383 -12.948300
					CHANNELS 3 Xrotation Yrotation Zrotation
					JOINT RightToeBase
					{
						OFFSET -0.192200 -14.009700 16.364100
						CHANNELS 3 Xrotation Yrotation Zrotation
						JOINT RightToe_End
						{
							OFFSET 1.784700 -0.561700 9.474800
							CHANNELS 3 Xrotation Yrotation Zrotation
							End Site
							{
								OFFSET 0 0 0
							}
						}
					}
				}
			}
		}
	}
	JOINT Spine_virtual
	{
		OFFSET 0.000000 0.000000 0.000000
		CHANNELS 3 Xrotation Yrotation Zrotation
		JOINT Spine
		{
			OFFSET 0.072000 7.257294 -0.789700
			CHANNELS 3 Xrotation Yrotation Zrotation
			JOINT Spine1
			{
				OFFSET 0.000000 12.508769 -0.658067
				CHANNELS 3 Xrotation Yrotation Zrotation
				JOINT Spine1_split
				{
					OFFSET 0.000000 12.508769 -0.658067
					CHANNELS 3 Xrotation Yrotation Zrotation
					JOINT Spine2
					{
						OFFSET 0.000000 12.508769 -0.658067
						CHANNELS 3 Xrotation Yrotation Zrotation
						JOINT Neck_virtual
						{
							OFFSET 0.000000 0.000000 0.000000
							CHANNELS 3 Xrotation Yrotation Zrotation
							JOINT Neck
							{
								OFFSET 0.000000 14.033295 7.520400
								CHANNELS 3 Xrotation Yrotation Zrotation
								JOINT Head
								{
									OFFSET 0.000000 8.198502 5.703100
									CHANNELS 3 Xrotation Yrotation Zrotation
									JOINT HeadTop_End
									{
										OFFSET 0.000000 17.760803 13.332701
										CHANNELS 3 Xrotation Yrotation Zrotation
										End Site
										{
											OFFSET 0 0 0
										}
									}
								}
							}
						}
						JOINT LeftShoulder_virtual
						{
							OFFSET 0.000000 0.000000 0.000000
							CHANNELS 3 Xrotation Yrotation Zrotation
							JOINT LeftShoulder
							{
								OFFSET 6.292450 5.785301 -0.669000
								CHANNELS 3 Xrotation Yrotation Zrotation
								JOINT LeftShoulder_split
								{
									OFFSET 6.292450 5.785301 -0.669000
									CHANNELS 3 Xrotation Yrotation Zrotation
									JOINT LeftArm
									{
										OFFSET 13.907140 -6.093903 1.965100
										CHANNELS 3 Xrotation Yrotation Zrotation
										JOINT LeftForeArm
										{
											OFFSET 34.140198 0.000000 0.000000
											CHANNELS 3 Xrotation Yrotation Zrotation
											JOINT LeftHand
											{
												OFFSET 40.960209 0.000000 0.000000
												CHANNELS 3 Xrotation Yrotation Zrotation
												End Site
												{
													OFFSET 0 0 0
												}
											}
										}
									}
								}
							}
						}
						JOINT RightShoulder_virtual
						{
							OFFSET 0.000000 0.000000 0.000000
							CHANNELS 3 Xrotation Yrotation Zrotation
							JOINT RightShoulder
							{
								OFFSET -6.292450 5.785301 -0.669000
								CHANNELS 3 Xrotation Yrotation Zrotation
								JOINT RightShoulder_split
								{
									OFFSET -6.292450 5.785301 -0.669000
									CHANNELS 3 Xrotation Yrotation Zrotation
									JOINT RightArm
									{
										OFFSET -13.907140 -6.093903 1.965100
										CHANNELS 3 Xrotation Yrotation Zrotation
										JOINT RightForeArm
										{
											OFFSET -34.140198 0.000000 0.000000
											CHANNELS 3 Xrotation Yrotation Zrotation
											JOINT RightHand
											{
												OFFSET -40.960209 0.000000 0.000000
												CHANNELS 3 Xrotation Yrotation Zrotation
												End Site
												{
													OFFSET 0 0 0
												}
											}
										}
									}
								}
							}
						}
					}
				}
			}
		}
	}
}
MOTION
Frames: 7
Frame Time: 0.03333333
-3.206868 111.917114 3.499355 0.000000 0.000000 0.000000 -6.970054 7.698515 -0.572556 -14.864863 12.976471 14.660670 23.792298 1.000584 4.052660 -3.459750 -11.994684 -11.029640 -1.825710 0.234897 -0.955291 0.000000 0.000000 0.000000 -7.093394 9.558457 -0.574141 1.341711 -9.517200 4.350901 20.517791 -8.031830 -5.746192 -10.303824 -15.044962 4.305009 -6.797690 -0.169338 0.033884 0.000000 0.000000 0.000000 -6.598260 7.370763 -1.044489 2.523703 0.641651 4.383436 2.262951 0.478070 2.892286 0.859451 -1.434061 -0.103063 0.000000 0.000000 0.000000 1.714550 0.760657 2.860496 12.417484 -0.812179 -1.292608 3.201932 -10.546755 -7.644834 0.000000 0.000000 0.000000 1.420832 0.783079 2.681908 2.169414 -14.441907 -11.826753 -0.509100 0.207609 -2.479913 4.067635 -3.283079 -69.957120 -1.729279 -1.125090 -0.305380 0.000000 0.000000 0.000000 1.419244 0.527293 2.884665 1.911726 8.924212 18.969706 0.989265 3.994564 -2.062450 24.908619 7.117704 59.003006 0.782764 6.992852 0.612720 0.000000 0.000000 0.000000 
-3.051807 112.136017 3.525810 0.000000 0.000000 0.000000 -6.595486 7.094542 -0.639072 -14.770972 13.284667 14.429651 23.157987 0.704616 3.964371 -3.369232 -11.059762 -10.892870 -1.724351 0.216755 -0.977297 0.000000 0.000000 0.000000 -6.735569 8.826011 -0.666376 1.049685 -9.488293 4.169573 20.086507 -7.941175 -5.741149 -9.989595 -14.269384 4.368210 -6.806588 -0.135341 0.033633 0.000000 0.000000 0.000000 -6.125885 6.910078 -1.093762 2.442144 0.528437 4.385056 2.344355 0.346525 2.877609 0.885110 -1.453020 -0.105539 0.000000 0.000000 0.000000 1.834488 0.590123 2.844910 12.215084 -0.569142 -1.186193 2.372025 -9.422398 -7.054024 0.000000 0.000000 0.000000 1.452615 0.609689 2.632087 2.173455 -14.655216 -12.135878 -0.566481 0.345445 -2.264762 4.444465 -2.197245 -70.173002 -1.647719 -0.895692 -0.204746 0.000000 0.000000 0.000000 1.527790 0.364351 2.893329 1.983997 8.241865 18.764136 0.677836 3.859940 -2.172603 26.926728 7.206393 58.131344 0.784309 6.849763 0.529753 0.000000 0.000000 0.000000 
-2.918601 112.350540 3.513779 0.000000 0.000000 0.000000 -6.211113 6.231301 -0.782329 -14.625448 13.537397 14.277180 22.505618 0.469736 3.845940 -3.355215 -9.871989 -10.759970 -1.619645 0.199343 -1.010398 0.000000 0.000000 0.000000 -6.354096 7.874813 -0.829495 0.748357 -9.528834 3.995870 19.618868 -7.845397 -5.675491 -9.712625 -13.248583 4.382271 -6.780986 -0.100344 0.053033 0.000000 0.000000 0.000000 -5.643026 6.220256 -1.217223 2.390752 0.445014 4.390705 2.448635 0.240340 2.878837 0.920108 -1.317421 -0.094443 0.000000 0.000000 0.000000 1.947168 0.436537 2.853081 11.946219 -0.312509 -1.062509 1.555355 -8.203280 -6.458036 0.000000 0.000000 0.000000 1.488432 0.461604 2.591193 2.181482 -14.817822 -12.380112 -0.706378 0.554113 -2.076190 4.812244 -1.339897 -70.477512 -1.593836 -0.659424 -0.143322 0.000000 0.000000 0.000000 1.637669 0.229913 2.912599 2.024921 7.828646 18.621761 0.345952 3.661668 -2.176336 27.507969 6.621040 57.566767 0.675607 6.247130 0.537592 0.000000 0.000000 0.000000 
-2.816479 112.552383 3.449764 0.000000 0.000000 0.000000 -5.825145 5.199084 -0.990363 -14.465174 13.703467 14.199518 21.865517 0.267589 3.706025 -3.400149 -8.498109 -10.643919 -1.541099 0.182586 -1.050062 0.000000 0.000000 0.000000 -5.958926 6.783893 -1.050099 0.445775 -9.636551 3.840512 19.109399 -7.772024 -5.549036 -9.450725 -12.040888 4.341976 -6.721595 -0.072341 0.090861 0.000000 0.000000 0.000000 -5.175455 5.328703 -1.414064 2.360488 0.390501 4.397929 2.572890 0.158747 2.890796 0.937073 -1.113930 -0.072002 0.000000 0.000000 0.000000 2.051817 0.313628 2.877211 11.594431 -0.049720 -0.915771 0.748921 -6.910108 -5.859274 0.000000 0.000000 0.000000 1.533756 0.345619 2.561796 2.201593 -14.925804 -12.518046 -0.897947 0.704752 -1.908300 5.229203 -0.879548 -70.810921 -1.571853 -0.510988 -0.137458 0.000000 0.000000 0.000000 1.731282 0.134263 2.939899 2.027766 7.683470 18.582308 0.160270 3.436087 -2.136504 26.715131 5.644193 57.298443 0.542950 5.408062 0.600629 0.000000 0.000000 0.000000 
-2.740794 112.750877 3.344818 0.000000 0.000000 0.000000 -5.445263 4.074210 -1.236901 -14.304775 13.791696 14.186948 21.253185 0.058521 3.549485 -3.453629 -7.041408 -10.573623 -1.500812 0.166450 -1.082737 0.000000 0.000000 0.000000 -5.566121 5.591406 -1.303979 0.126841 -9.796059 3.699817 18.554277 -7.723331 -5.367382 -9.173887 -10.716008 4.288552 -6.672583 -0.057445 0.140546 0.000000 0.000000 0.000000 -4.751922 4.290030 -1.663565 2.344592 0.356789 4.401097 2.710645 0.093656 2.903680 0.936133 -0.938382 -0.071042 0.000000 0.000000 0.000000 2.149817 0.224920 2.902839 11.193834 0.205555 -0.737958 -0.024806 -5.589691 -5.256086 0.000000 0.000000 0.000000 1.596640 0.262375 2.543991 2.243620 -14.968846 -12.535256 -1.117802 0.728828 -1.783356 5.696265 -0.863509 -71.124051 -1.594819 -0.528562 -0.181090 0.000000 0.000000 0.000000 1.816375 0.072074 2.958637 1.990617 7.718228 18.594439 0.211361 3.258303 -2.078027 24.966283 4.737070 57.158769 0.430704 4.786629 0.675382 0.000000 0.000000 0.000000 
-2.684267 112.950089 3.203739 0.000000 0.000000 0.000000 -5.075230 2.930421 -1.490331 -14.157783 13.814354 14.216431 20.674995 -0.173565 3.374929 -3.454990 -5.591907 -10.559992 -1.470164 0.148433 -1.105417 0.000000 0.000000 0.000000 -5.191205 4.369759 -1.566728 -0.177826 -9.990074 3.564789 17.946237 -7.707900 -5.143294 -8.852124 -9.342828 4.242641 -6.653784 -0.056496 0.192903 0.000000 0.000000 0.000000 -4.383709 3.179186 -1.929575 2.334740 0.333024 4.398207 2.850613 0.033504 2.908894 0.891360 -0.860935 -0.061456 0.000000 0.000000 0.000000 2.243200 0.163373 2.913709 10.793180 0.450169 -0.541112 -0.752210 -4.280734 -4.641171 0.000000 0.000000 0.000000 1.683127 0.202751 2.533037 2.304461 -14.966932 -12.445630 -1.340395 0.657816 -1.712472 6.159538 -1.239119 -71.381030 -1.647086 -0.684898 -0.252306 0.000000 0.000000 0.000000 1.894833 0.034214 2.956912 1.925047 7.888028 18.595789 0.501290 3.199224 -2.069344 22.786819 4.450448 56.984364 0.380609 4.728886 0.714823 0.000000 0.000000 0.000000 
-2.636790 113.160873 3.050358 0.000000 0.000000 0.000000 -4.726259 1.832479 -1.728699 -14.017747 13.810646 14.259621 20.103513 -0.419342 3.188230 -3.382307 -4.209934 -10.586470 -1.425051 0.129473 -1.117305 0.000000 0.000000 0.000000 -4.843284 3.181815 -1.815073 -0.434713 -10.184918 3.443128 17.305568 -7.739777 -4.895134 -8.519557 -8.003159 4.169395 -6.612048 -0.066482 0.239911 0.000000 0.000000 0.000000 -4.072943 2.068609 -2.188165 2.325467 0.307792 4.384822 2.976375 -0.027656 2.901715 0.871924 -0.899656 -0.067772 0.000000 0.000000 0.000000 2.334260 0.121020 2.900349 10.437152 0.679829 -0.334635 -1.413345 -3.026047 -4.015359 0.000000 0.000000 0.000000 1.788085 0.153328 2.519612 2.374422 -14.956183 -12.294230 -1.515064 0.540037 -1.667976 6.544479 -1.923919 -71.562604 -1.714474 -0.920008 -0.325976 0.000000 0.000000 0.000000 1.977090 0.007698 2.939135 1.849492 8.155441 18.538546 0.836704 3.150202 -2.060634 20.592477 5.152086 56.731855 0.408436 5.219313 0.705066 0.000000 0.000000 0.000000 
